<?xml version="1.0" encoding="UTF-8" standalone="no"?><svg xmlns:svg="http://www.w3.org/2000/svg" xmlns="http://www.w3.org/2000/svg" version="1.1" width="100" height="100" xml:space="preserve"><path d="M 99.99,50.01 C 100.3,69.67 87.62,88.63 69.45,96.07 51.6,103.8 29.43,99.82 15.5,86.2 1.391,73.09 -3.759,51.49 2.828,33.4 9.197,14.65 27.61,0.8338 47.42,0.0911 66.68,-1.153 85.92,10.01 94.52,27.26 c 3.6,7 5.48,14.87 5.47,22.75 z" fill="#0079c1" /><path d="m 33.62,67.87 c 0.56,-12.29 1.13,-24.57 1.7,-36.86 -3.77,-3.43 -7.54,-6.86 -11.3,-10.29 -1.78,0.18 -2.8,2.43 -4.25,3.49 -1.64,1.13 -2.61,2.76 -0.89,4.34 1.69,2.79 3.39,5.58 5.08,8.37 -1.82,2.57 -1.64,6.81 -5.62,6.49 -2.83,0.69 -5.81,1.01 -8.555,1.94 -0.246,2.68 -0.254,5.54 0,8.22 3.645,1.23 7.525,1.89 11.265,2.9 0.31,3.41 4.25,6.54 0.96,9.37 -1.52,2.5 -3.42,4.84 -4.7,7.45 1.72,2.07 3.73,4.09 5.81,5.82 2.11,-1.46 3.66,-3.91 5.55,-5.76 1.65,-1.83 3.3,-3.65 4.96,-5.48 z" fill="#fff" /><path d="m 42.2,27.06 c 10.53,6.45 21.05,12.91 31.58,19.36 4.94,-1.08 9.88,-2.17 14.82,-3.25 0.77,-1.61 -0.61,-3.65 -0.77,-5.44 -0.11,-1.98 -1,-3.66 -3.24,-3.01 -3.27,0 -6.53,0 -9.8,0 -1.25,-2.9 -4.96,-4.95 -2.63,-8.17 0.88,-2.79 2.17,-5.5 2.8,-8.32 -2.17,-1.61 -4.6,-3.1 -7.03,-4.28 -2.94,2.47 -5.52,5.44 -8.32,8.11 -3.08,-1.5 -7.8,0.24 -8.51,-4.04 -1.35,-2.6 -2.36,-5.44 -3.92,-7.89 -2.66,0.39 -5.44,1.06 -7.99,1.94 0.12,3.06 1.25,6.18 1.77,9.26 0.41,1.91 0.83,3.83 1.24,5.74 z" fill="#fff" /><path d="M 73.16,55.12 C 62.54,60.95 51.92,66.77 41.3,72.59 c -1.29,4.86 -2.57,9.72 -3.86,14.59 1.04,1.45 3.5,1.21 5.14,1.94 1.8,0.85 3.7,0.88 4.21,-1.4 1.57,-2.86 3.14,-5.72 4.71,-8.58 3.14,0.29 6.73,-1.98 8.44,1.63 2.01,2.1 3.77,4.54 5.95,6.44 2.44,-1.12 4.92,-2.54 7.12,-4.09 -0.75,-3.77 -2.11,-7.47 -3.1,-11.21 2.79,-1.97 3.54,-6.94 7.63,-5.51 2.93,0.1 5.91,0.54 8.81,0.36 0.93,-2.53 1.68,-5.28 2.14,-7.94 -2.32,-1.12 -5.21,-1.26 -7.75,-2 -2.53,-0.56 -5.06,-1.13 -7.58,-1.7 z" fill="#fff" /><path d="M 74.13,50.01 C 74.42,62.23 64.05,73.42 51.85,74.07 39.68,75.3 27.73,65.81 26.14,53.69 24.04,41.84 32.26,29.4 43.96,26.64 c 11.6,-3.26 24.8,3.69 28.7,15.08 0.97,2.65 1.47,5.47 1.47,8.29 z" fill="#0079c1" /></svg>