<svg width="180" height="176" xmlns="http://www.w3.org/2000/svg">

 <g>
  <title>background</title>
  <rect fill="none" id="canvas_background" height="178" width="182" y="-1" x="-1"/>
 </g>
 <g>
  <title>Layer 1</title>
  <g id="layer1">
   <path fill="#1793d1" fill-rule="evenodd" id="path2518" d="m87.812502,4.624993c-7.39687,18.13516 -11.8583,29.99768 -20.09375,47.59375c5.04936,5.35232 11.24721,11.58536 21.3125,18.625c-10.82117,-4.45285 -18.20254,-8.9234 -23.71875,-13.5625c-10.5398,21.99291 -27.05264,53.32084 -60.5625,113.531251c26.33763,-15.20517 46.75409,-24.57932 65.78125,-28.15625c-0.81703,-3.51405 -1.28155,-7.31518 -1.25,-11.28125l0.03125,-0.84375c0.41792,-16.87382 9.19567,-29.84979 19.59375,-28.96875c10.39809,0.88104 18.48041,15.28242 18.0625,32.15625c-0.0786,3.17512 -0.43674,6.22955 -1.0625,9.0625c18.82058,3.68164 39.01873,13.03179 65,28.03125c-5.123,-9.4318 -9.69572,-17.93388 -14.0625,-26.03125c-6.87839,-5.33121 -14.05289,-12.2698 -28.6875,-19.78125c10.05899,2.61375 17.2611,5.62932 22.875,9c-44.39828,-82.661841 -47.99359,-93.645891 -63.21875,-129.375001z"/>
  </g>
 </g>
</svg>