<svg height="48" viewBox="0 0 48 48.000001" width="48" xmlns="http://www.w3.org/2000/svg" xmlns:xlink="http://www.w3.org/1999/xlink"><linearGradient id="a"><stop offset="0"/><stop offset="1" stop-opacity="0"/></linearGradient><linearGradient id="b" gradientUnits="userSpaceOnUse" x1="25" x2="25" y1="1004.3622" y2="1052.3622"><stop offset="0" stop-color="#1abc9c"/><stop offset="1" stop-color="#2980b9"/></linearGradient><linearGradient id="c" gradientTransform="matrix(.87348483 .87348483 -.87348483 .87348483 901.29515 -895.22244)" gradientUnits="userSpaceOnUse" x1="24" x2="49" xlink:href="#a" y1="1028.3622" y2="1028.3622"/><linearGradient id="d" gradientTransform="matrix(.87348483 .87348483 -2.4566653 2.4566653 2529.3783 -2523.3055)" gradientUnits="userSpaceOnUse" x1="24" x2="49" xlink:href="#a" y1="1028.3622" y2="1028.3622"/><linearGradient id="e" gradientTransform="matrix(.87348483 .87348483 -3.7122845 3.7122845 3820.6096 -3814.5368)" gradientUnits="userSpaceOnUse" x1="24" x2="49" xlink:href="#a" y1="1028.3622" y2="1028.3622"/><g fill-rule="evenodd" transform="translate(0 -1004.3622)"><circle cx="24" cy="1028.3622" fill="url(#b)" r="24"/><g transform="matrix(1.2352941 0 0 1.2352941 -5.647059 -241.96758)"><path d="m27.494141 20.505859-6.988282 6.988282 16.601563 16.599609a24 24 0 0 0 6.978516-6.996094z" fill="url(#c)" opacity=".2" transform="matrix(.80952382 0 0 .80952382 4.571429 1008.9336)"/><path d="m33.826172 14.173828-.441406.441406a13.279412 13.279412 0 0 1 3.894531 9.384766 13.279412 13.279412 0 0 1 -13.279297 13.279297 13.279412 13.279412 0 0 1 -9.384766-3.894531l-.441406.441406 13.832031 13.833984a24 24 0 0 0 19.634766-19.673828z" fill="url(#d)" opacity=".2" transform="matrix(.80952382 0 0 .80952382 4.571429 1008.9336)"/><path d="m38.849609 9.1464844v.0039062l-1.154297 1.1542974a19.378676 19.378676 0 0 1 5.683594 13.695312 19.378676 19.378676 0 0 1 -19.378906 19.378906 19.378676 19.378676 0 0 1 -13.695312-5.685547l-1.1542974 1.15625 8.1875004 8.1875a24 24 0 0 0 6.662109.962891 24 24 0 0 0 24-24 24 24 0 0 0 -.953125-6.65625z" fill="url(#e)" opacity=".2" transform="matrix(.80952382 0 0 .80952382 4.571429 1008.9336)"/><path d="m24.000001 1011.3622a1.4000001 1.4000002 0 0 0 -1.365041 1.0944 16.000001 16.000001 0 0 0 -8.92128 3.7031 1.4000001 1.4000002 0 0 0 -.71368-.1975 1.4000001 1.4000002 0 0 0 -1.399999 1.4 1.4000001 1.4000002 0 0 0 .197201.7132 16.000001 16.000001 0 0 0 -3.7103211 8.924 1.4000001 1.4 0 0 0 -1.0868804 1.3628 1.4000001 1.4 0 0 0 1.0944006 1.3651 16.000001 16.000001 0 0 0 3.7031189 8.9212 1.4000001 1.4 0 0 0 -.197519.7137 1.4000001 1.4 0 0 0 1.399999 1.4 1.4000001 1.4 0 0 0 .71112-.1959 16.000001 16.000001 0 0 0 8.926161 3.7092 1.4000001 1.4 0 0 0 1.36272 1.0867 1.4000001 1.4 0 0 0 1.3654-1.0956 16.000001 16.000001 0 0 0 8.931799-3.6952 1.4000001 1.4 0 0 0 .7028.1908 1.4000001 1.4 0 0 0 1.399999-1.4 1.4000001 1.4 0 0 0 -.196719-.7124 16.000001 16.000001 0 0 0 3.72332-8.9278 1.4000001 1.4 0 0 0 1.0734-1.3598 1.4000001 1.4 0 0 0 -1.095599-1.3654 16.000001 16.000001 0 0 0 -3.695802-8.9309 1.4000001 1.4 0 0 0 .1914-.7037 1.4000001 1.4 0 0 0 -1.399999-1.4 1.4000001 1.4 0 0 0 -.71272.1969 16.000001 16.000001 0 0 0 -8.92748-3.7232 1.4000001 1.4000002 0 0 0 -1.359799-1.0737zm0 .6001a.80000001.80000001 0 0 1 .8.7999.80000001.80000001 0 0 1 -.8.8.80000001.80000001 0 0 1 -.800002-.8.80000001.80000001 0 0 1 .800002-.7999zm-1.31684 1.271a1.4000001 1.4000002 0 0 0 1.31684.9289 1.4000001 1.4000002 0 0 0 1.309319-.9092 15.2 15.2 0 0 1 8.435161 3.4939 1.4000001 1.4 0 0 0 -.144482.6153 1.4000001 1.4 0 0 0 1.400001 1.4 1.4000001 1.4 0 0 0 .61776-.1446 15.2 15.2 0 0 1 3.49812 8.4321 1.4000001 1.4 0 0 0 -.915881 1.3125 1.4000001 1.4 0 0 0 .909161 1.3093 15.2 15.2 0 0 1 -3.49384 8.4352 1.4000001 1.4 0 0 0 -.61532-.1445 1.4000001 1.4 0 0 0 -1.400001 1.4 1.4000001 1.4 0 0 0 .143921.6163 15.2 15.2 0 0 1 -8.4314 3.4996 1.4000001 1.4 0 0 0 -1.312519-.9159 1.4000001 1.4 0 0 0 -1.30896.9082 15.2 15.2 0 0 1 -8.441401-3.4805 1.4000001 1.4 0 0 0 .150361-.6277 1.4000001 1.4 0 0 0 -1.400001-1.4 1.4000001 1.4 0 0 0 -.616639.1441 15.2 15.2 0 0 1 -3.5117204-8.4274 1.4000001 1.4 0 0 0 .9283602-1.3167 1.4000001 1.4 0 0 0 -.9081998-1.309 15.2 15.2 0 0 1 3.48112-8.4412 1.4000001 1.4000002 0 0 0 .627079.1502 1.4000001 1.4000002 0 0 0 1.400001-1.4 1.4000001 1.4000002 0 0 0 -.14436-.6172 15.2 15.2 0 0 1 8.42752-3.5117zm1.31684 2.9288a1.4000001 1.4 0 0 0 -1.3678 1.1051 11.2 11.199999 0 0 0 -9.8322 11.095 11.2 11.199999 0 0 0 9.834239 11.0997 1.4000001 1.4 0 0 0 1.365761 1.1004 1.4000001 1.4 0 0 0 1.36784-1.105 11.2 11.199999 0 0 0 9.832159-11.0951 11.2 11.199999 0 0 0 -9.8342-11.0997 1.4000001 1.4 0 0 0 -1.365799-1.1004zm-11.000001.4001a.80000001.80000001 0 0 1 .8.8.80000001.80000001 0 0 1 -.8.8.80000001.80000001 0 0 1 -.799999-.8.80000001.80000001 0 0 1 .799999-.8zm22 0a.80000001.80000001 0 0 1 .799999.8.80000001.80000001 0 0 1 -.799999.8.80000001.80000001 0 0 1 -.799999-.8.80000001.80000001 0 0 1 .799999-.8zm-10.999999.2a.80000001.80000001 0 0 1 .8.7999.80000001.80000001 0 0 1 -.8.8002.80000001.80000001 0 0 1 -.800002-.8002.80000001.80000001 0 0 1 .800002-.7999zm-1.307721 1.2985a1.4000001 1.4 0 0 0 1.307721.9014 1.4000001 1.4 0 0 0 1.305558-.8988 10.4 10.4 0 0 1 9.094441 10.2989 10.4 10.4 0 0 1 -9.092241 10.3015 1.4000001 1.4 0 0 0 -1.307758-.9014 1.4000001 1.4 0 0 0 -1.305521.8988 10.4 10.4 0 0 1 -9.094479-10.2989 10.4 10.4 0 0 1 9.092279-10.3015zm1.307721 6.3015a4 4 0 0 0 -4.000001 4 4 4 0 0 0 4.000001 4 4 4 0 0 0 3.999999-4 4 4 0 0 0 -3.999999-4zm-15.5999997 3.2001a.80000001.80000001 0 0 1 .7999999.7999.80000001.80000001 0 0 1 -.7999999.7999.80000001.80000001 0 0 1 -.7999999-.7999.80000001.80000001 0 0 1 .7999999-.7999zm31.1999987 0a.80000001.80000001 0 0 1 .8.7999.80000001.80000001 0 0 1 -.8.7999.80000001.80000001 0 0 1 -.800001-.7999.80000001.80000001 0 0 1 .800001-.7999zm-15.599999 10.7998a.80000001.80000001 0 0 1 .8.8002.80000001.80000001 0 0 1 -.8.7999.80000001.80000001 0 0 1 -.800002-.7999.80000001.80000001 0 0 1 .800002-.8002zm-11.000001.2001a.80000001.80000001 0 0 1 .8.8.80000001.80000001 0 0 1 -.8.8.80000001.80000001 0 0 1 -.799999-.8.80000001.80000001 0 0 1 .799999-.8zm22 0a.80000001.80000001 0 0 1 .799999.8.80000001.80000001 0 0 1 -.799999.8.80000001.80000001 0 0 1 -.799999-.8.80000001.80000001 0 0 1 .799999-.8zm-10.999999 4.6a.80000001.80000001 0 0 1 .8.8.80000001.80000001 0 0 1 -.8.7999.80000001.80000001 0 0 1 -.800002-.7999.80000001.80000001 0 0 1 .800002-.8z" fill="#fcfcfc"/></g></g></svg>