<?xml version="1.0" encoding="UTF-8" standalone="no"?>
<!-- Created with Inkscape (http://www.inkscape.org/) -->

<svg
   xmlns:dc="http://purl.org/dc/elements/1.1/"
   xmlns:cc="http://creativecommons.org/ns#"
   xmlns:rdf="http://www.w3.org/1999/02/22-rdf-syntax-ns#"
   xmlns:svg="http://www.w3.org/2000/svg"
   xmlns="http://www.w3.org/2000/svg"
   xmlns:xlink="http://www.w3.org/1999/xlink"
   xmlns:sodipodi="http://sodipodi.sourceforge.net/DTD/sodipodi-0.dtd"
   xmlns:inkscape="http://www.inkscape.org/namespaces/inkscape"
   width="210mm"
   height="297mm"
   id="svg2"
   version="1.1"
   inkscape:version="0.91 r13725"
   sodipodi:docname="blackPanther20152.svg"
   inkscape:export-filename="/home/vector/Dokumentumok/Projektek/Panther/logok/blackPanther20152.png"
   inkscape:export-xdpi="90"
   inkscape:export-ydpi="90">
  <defs
     id="defs4">
    <linearGradient
       inkscape:collect="always"
       id="linearGradient4285">
      <stop
         style="stop-color:#999999;stop-opacity:1;"
         offset="0"
         id="stop4287" />
      <stop
         style="stop-color:#999999;stop-opacity:0;"
         offset="1"
         id="stop4289" />
    </linearGradient>
    <linearGradient
       id="linearGradient4253">
      <stop
         style="stop-color:#000000;stop-opacity:1;"
         offset="0"
         id="stop4255" />
      <stop
         style="stop-color:#000000;stop-opacity:0;"
         offset="1"
         id="stop4257" />
    </linearGradient>
    <inkscape:perspective
       sodipodi:type="inkscape:persp3d"
       inkscape:vp_x="0 : 526.18109 : 1"
       inkscape:vp_y="0 : 1000 : 0"
       inkscape:vp_z="744.09448 : 526.18109 : 1"
       inkscape:persp3d-origin="372.04724 : 350.78739 : 1"
       id="perspective3147" />
    <linearGradient
       inkscape:collect="always"
       xlink:href="#linearGradient4285"
       id="linearGradient4291"
       x1="137.17949"
       y1="328.0032"
       x2="296.15384"
       y2="586.97754"
       gradientUnits="userSpaceOnUse" />
  </defs>
  <sodipodi:namedview
     id="base"
     pagecolor="#ffffff"
     bordercolor="#666666"
     borderopacity="1.0"
     inkscape:pageopacity="0.0"
     inkscape:pageshadow="2"
     inkscape:zoom="1.9469531"
     inkscape:cx="429.23635"
     inkscape:cy="385.43327"
     inkscape:document-units="px"
     inkscape:current-layer="layer1"
     showgrid="false"
     inkscape:object-nodes="true"
     inkscape:snap-smooth-nodes="true"
     inkscape:object-paths="true"
     inkscape:snap-midpoints="true"
     inkscape:snap-nodes="false"
     inkscape:snap-bbox="false"
     inkscape:window-width="1600"
     inkscape:window-height="841"
     inkscape:window-x="0"
     inkscape:window-y="0"
     inkscape:window-maximized="1" />
  <metadata
     id="metadata7">
    <rdf:RDF>
      <cc:Work
         rdf:about="">
        <dc:format>image/svg+xml</dc:format>
        <dc:type
           rdf:resource="http://purl.org/dc/dcmitype/StillImage" />
        <dc:title></dc:title>
      </cc:Work>
    </rdf:RDF>
  </metadata>
  <g
     inkscape:label="1. réteg"
     inkscape:groupmode="layer"
     id="layer1"
     style="display:inline">
    <path
       style="fill:#000000;fill-opacity:1;stroke:#000000;stroke-width:1px;stroke-linecap:butt;stroke-linejoin:miter;stroke-opacity:1"
       d="m 358.90742,168.70736 54.12766,22.46402 27.968,5.76922 27.04794,8.80162 32.01686,8.61795 16.717,11.87988 24.05147,30.33775 47.11328,34.54541 3.6288,19.90951 -22.277,27.22746 -12.71653,-4.41984 -26.88705,20.50879 -4.95045,-4.95045 19.80179,-27.22746 -8.2425,-20.80564 -22.69779,-6.42181 -38.36597,4.95044 -29.70268,7.42567 -14.85134,14.85135 -12.37612,27.22746 -2.47523,22.27701 0,9.90089 3.71284,2.47523 8.66328,0 23.51463,0 14.05635,-1.49679 5.74543,6.44723 -23.51462,6.18806 -17.32656,4.95045 -5.78822,7.65415 -21.43924,-0.22848 -14.85134,-1.23761 -1.23762,-8.66328 3.71284,-11.13851 -2.47522,-17.32657 -3.71284,-19.80178 -6.18806,-9.9009 -9.90089,-6.18806 -8.66329,0 -6.18806,0 -9.90089,11.13851 -14.85134,14.85134 -3.71284,17.32656 -4.95044,6.18806 -6.18806,-1.23761 -11.13851,-18.56418 -7.42567,-8.66328 -3.71283,0 -3.71284,12.37612 0,3.71284 13.61373,23.51462 11.13851,16.08895 0,8.66329 -4.95045,16.08895 -3.71284,16.08895 -1.23761,14.85134 0,22.27702 12.37612,24.75223 14.85134,17.32656 24.75223,18.56418 32.17791,8.66329 23.51463,2.47522 21.0394,-1.23761 23.51462,-3.71284 22.27701,-8.66328 21.03941,-12.37612 17.32656,-18.56417 12.37612,-22.27702 7.42567,-18.56418 3.59909,-2.45352 0.11374,25.96818 -7.42567,22.27701 c -6.2922,13.4391 -15.17637,28.0595 -29.70268,42.07881 l -24.75223,14.85134 -24.75224,9.9009 -25.98984,2.47521 -19.8018,0 -19.80179,-3.71283 -19.80178,-6.18806 18.56417,17.32657 25.98986,22.27701 25.98983,18.56417 21.03941,11.13851 27.22746,7.42567 18.56418,1.23761 c 0,0 19.80178,1.65015 48.26685,-12.37612 l 0,0 c 59.78181,-40.90096 62.85342,-59.04145 84.15761,-102.72177 l 9.9009,-37.12836 4.95043,-44.55402 -1.23761,-27.22746 1.23762,-29.70268 8.66328,18.56417 8.66328,28.46507 3.71284,37.12836 0,29.70268 -2.51482,24.97003 -6.14846,28.24728 -8.66328,28.46507 c -20.99137,57.3732 -37.3714,78.3316 -71.78149,117.57311 l -23.51462,22.27702 -30.99567,22.88371 -39.54821,19.19509 -39.60357,11.13851 -34.65314,0 -24.55011,-6.77606 -22.47913,-13.02573 -21.0394,-17.32657 -35.89075,-37.12835 -23.51462,-34.65313 -16.08895,-47.02925 -14.85135,-47.02925 -1.23761,-28.46507 -6.18806,-9.90089 -8.66328,0 -3.71283,38.36596 0,23.51463 0,27.22746 11.1385,47.02925 16.08896,37.12835 23.51462,32.17791 12.37612,13.61373 24.75224,19.80178 -28.46508,-2.47522 -45.79163,-8.66328 -35.89075,-12.37612 -42.0788,-23.51463 -27.22746,-22.27701 -25.98984,-29.70268 -18.56418,-28.46507 2.47522,-37.12836 9.90089,-51.97969 16.08895,-43.31641 24.75225,-49.50448 18.56418,-25.98984 17.32656,-19.80179 18.56417,-16.08895 0,-6.18806 -25.98984,9.90089 -28.46507,18.56418 -19.80179,17.32656 -24.75224,24.75224 -17.32657,27.22746 -13.61373,28.46507 -11.1385,43.31642 -4.95045,-37.12836 0,-23.51463 0,-25.98985 2.26631,-26.95765 6.39697,-28.73487 8.66329,-28.46507 16.08895,-27.22746 22.27701,-25.98985 19.80179,-17.32657 23.51463,-14.85134 32.17791,-17.32657 30.94029,-7.42566 32.1779,0 11.13851,-6.18806 0,-7.42567 -19.80179,-4.95045 -19.80179,1.23761 -33.41551,2.47522 -22.27702,4.95044 -24.75223,9.9009 -23.51463,17.32657 -19.80178,14.85135 21.03939,-34.65314 18.92332,-19.36102 28.10593,-22.71778 29.70269,-16.08895 40.84119,-11.13851 30.94029,-6.18806 55.69253,-7.42567 40.84119,-3.71283 -12.37612,-23.51463 -6.18806,-14.85134 z"
       id="path3105"
       inkscape:connector-curvature="0"
       sodipodi:nodetypes="cccccccccccccccccccccccccccccccccccccccccccccccccccccccccccccccccccccccccccccccccccccccccccccccccccccccccccccccccccccccccccccccccccccccccccccccccccccccccccccccccccccccccccccccccc" />
    <path
       sodipodi:nodetypes="cccccccccccccccccccccccccccccccccccccccccccccccccccccccccccccccccccccccccccccccccccccccccccccccccccccccccccccccccccccccccccccccccccccccccccccccccccccccccccccccccccccccccccccccccc"
       inkscape:connector-curvature="0"
       id="path4251"
       d="m 358.90742,168.70736 54.12766,22.46402 27.968,5.76922 27.04794,8.80162 32.01686,8.61795 16.717,11.87988 24.05147,30.33775 47.11328,34.54541 3.6288,19.90951 -22.277,27.22746 -12.71653,-4.41984 -26.88705,20.50879 -4.95045,-4.95045 19.80179,-27.22746 -8.2425,-20.80564 -22.69779,-6.42181 -38.36597,4.95044 -29.70268,7.42567 -14.85134,14.85135 -12.37612,27.22746 -2.47523,22.27701 0,9.90089 3.71284,2.47523 8.66328,0 23.51463,0 14.05635,-1.49679 5.74543,6.44723 -23.51462,6.18806 -17.32656,4.95045 -5.78822,7.65415 -21.43924,-0.22848 -14.85134,-1.23761 -1.23762,-8.66328 3.71284,-11.13851 -2.47522,-17.32657 -3.71284,-19.80178 -6.18806,-9.9009 -9.90089,-6.18806 -8.66329,0 -6.18806,0 -9.90089,11.13851 -14.85134,14.85134 -3.71284,17.32656 -4.95044,6.18806 -6.18806,-1.23761 -11.13851,-18.56418 -7.42567,-8.66328 -3.71283,0 -3.71284,12.37612 0,3.71284 13.61373,23.51462 11.13851,16.08895 0,8.66329 -4.95045,16.08895 -3.71284,16.08895 -1.23761,14.85134 0,22.27702 12.37612,24.75223 14.85134,17.32656 24.75223,18.56418 32.17791,8.66329 23.51463,2.47522 21.0394,-1.23761 23.51462,-3.71284 22.27701,-8.66328 21.03941,-12.37612 17.32656,-18.56417 12.37612,-22.27702 7.42567,-18.56418 3.59909,-2.45352 0.11374,25.96818 -7.42567,22.27701 c -6.2922,13.4391 -15.17637,28.0595 -29.70268,42.07881 l -24.75223,14.85134 -24.75224,9.9009 -25.98984,2.47521 -19.8018,0 -19.80179,-3.71283 -19.80178,-6.18806 18.56417,17.32657 25.98986,22.27701 25.98983,18.56417 21.03941,11.13851 27.22746,7.42567 18.56418,1.23761 c 0,0 19.80178,1.65015 48.26685,-12.37612 l 0,0 c 59.78181,-40.90096 62.85342,-59.04145 84.15761,-102.72177 l 9.9009,-37.12836 4.95043,-44.55402 -1.23761,-27.22746 1.23762,-29.70268 8.66328,18.56417 8.66328,28.46507 3.71284,37.12836 0,29.70268 -2.51482,24.97003 -6.14846,28.24728 -8.66328,28.46507 c -20.99137,57.3732 -37.3714,78.3316 -71.78149,117.57311 l -23.51462,22.27702 -30.99567,22.88371 -39.54821,19.19509 -39.60357,11.13851 -34.65314,0 -24.55011,-6.77606 -22.47913,-13.02573 -21.0394,-17.32657 -35.89075,-37.12835 -23.51462,-34.65313 -16.08895,-47.02925 -14.85135,-47.02925 -1.23761,-28.46507 -6.18806,-9.90089 -8.66328,0 -3.71283,38.36596 0,23.51463 0,27.22746 11.1385,47.02925 16.08896,37.12835 23.51462,32.17791 12.37612,13.61373 24.75224,19.80178 -28.46508,-2.47522 -45.79163,-8.66328 -35.89075,-12.37612 -42.0788,-23.51463 -27.22746,-22.27701 -25.98984,-29.70268 -18.56418,-28.46507 2.47522,-37.12836 9.90089,-51.97969 16.08895,-43.31641 24.75225,-49.50448 18.56418,-25.98984 17.32656,-19.80179 18.56417,-16.08895 0,-6.18806 -25.98984,9.90089 -28.46507,18.56418 -19.80179,17.32656 -24.75224,24.75224 -17.32657,27.22746 -13.61373,28.46507 -11.1385,43.31642 -4.95045,-37.12836 0,-23.51463 0,-25.98985 2.26631,-26.95765 6.39697,-28.73487 8.66329,-28.46507 16.08895,-27.22746 22.27701,-25.98985 19.80179,-17.32657 23.51463,-14.85134 32.17791,-17.32657 30.94029,-7.42566 32.1779,0 11.13851,-6.18806 0,-7.42567 -19.80179,-4.95045 -19.80179,1.23761 -33.41551,2.47522 -22.27702,4.95044 -24.75223,9.9009 -23.51463,17.32657 -19.80178,14.85135 21.03939,-34.65314 18.92332,-19.36102 28.10593,-22.71778 29.70269,-16.08895 40.84119,-11.13851 30.94029,-6.18806 55.69253,-7.42567 40.84119,-3.71283 -12.37612,-23.51463 -6.18806,-14.85134 z"
       style="fill:url(#linearGradient4291);fill-opacity:1;stroke:#000000;stroke-width:1px;stroke-linecap:butt;stroke-linejoin:miter;stroke-opacity:1" />
    <path
       sodipodi:nodetypes="cccccccccccccccccccccccccccccccccccccccccccccccccccccccccccccccccccccccccccccccccccccccccccccccccccccccccccccccc"
       inkscape:connector-curvature="0"
       id="path3196"
       d="m 358.00495,169.40076 58.84558,23.58392 c 29.76195,5.85207 61.07877,13.26912 84.55627,23.14074 l 16.70038,11.84892 24.02758,30.25869 47.06644,34.45536 3.62519,19.85763 -22.25485,27.15649 -12.7039,-4.40831 -26.86033,20.45533 -4.94551,-4.93754 20.97295,-33.11082 -11.81753,-14.81261 -21.47372,-7.58043 c -17.86435,-3.84262 -43.71124,1.41813 -62.04667,13.53473 -26.50111,20.942 -36.96952,37.23203 -34.43662,64.18807 l 0,9.8751 3.70917,2.46877 8.65465,0 23.49125,0 14.04238,-1.49291 5.73974,6.43045 -23.49127,6.17193 -17.30932,4.93754 -5.78248,7.63421 c -12.13929,0.3438 -24.17762,-0.45749 -36.25449,-1.46228 l -1.23639,-8.64068 3.70914,-11.1095 -2.47275,-17.2814 c -2.62002,-19.12327 -4.89919,-26.4941 -19.78212,-35.79721 -12.69246,-1.63868 -20.64288,3.81882 -29.49107,9.91862 -7.06122,8.61387 -10.68106,18.83594 -13.78229,33.28491 l -4.94551,6.17193 -6.18191,-1.23438 -11.12744,-18.51581 -7.41828,-8.64069 -3.70914,0 -3.70916,12.34385 0,3.70318 13.6002,23.45331 11.12744,16.04705 0,8.64069 -4.94553,16.04701 -3.70915,16.04702 c -1.57391,12.30077 -3.6181,18.70952 -1.23638,37.03159 14.89201,35.40448 28.97496,41.11302 50.82935,57.42917 l 28.48116,11.69645 c 18.38664,3.82184 34.41437,4.8346 52.84575,2.42525 14.73582,-2.51889 28.33169,-8.16048 42.17353,-13.53473 33.40064,-19.31906 40.71027,-33.49315 50.69165,-53.0786 l 7.41829,-18.5158 3.59551,-2.44713 c 1.90793,16.90134 1.32426,30.78994 -4.92294,46.92859 -20.72173,39.88705 -59.071,65.72228 -107.47413,70.31648 -13.56677,1.32796 -26.34281,-1.22814 -39.56422,-3.70316 l -19.78209,-6.17192 18.5457,17.2814 c 16.05917,15.23414 33.96686,27.92605 51.92801,40.73474 l 21.01852,11.10947 c 31.53239,10.86457 65.60165,9.47376 93.96499,-3.70315 87.15385,-53.30107 102.37772,-151.3771 98.91051,-240.70529 l 8.65467,18.5158 c 10.53606,41.17158 14.14278,79.79425 8.66065,122.33439 -18.80753,77.47158 -49.10092,139.31927 -104.04411,191.28673 -33.43421,29.20016 -75.29166,47.74462 -114.8014,55.46031 -36.74643,2.24935 -50.87988,-1.97717 -81.60118,-19.75018 -22.98622,-15.3877 -37.77095,-32.67494 -55.6827,-53.12212 -25.48195,-29.46211 -41.94592,-79.08777 -41.94592,-79.08777 l -11.264,-45.71581 -3.61811,-33.15432 -6.1819,-9.87509 -8.65467,0 c -7.01698,50.13286 -5.47022,88.84259 7.41828,135.78247 l 16.07298,37.03159 16.34608,23.75802 19.50898,21.91427 24.72763,19.75017 -28.43678,-2.46878 c -29.41582,-3.37456 -54.01342,-11.4869 -81.60118,-20.98455 -55.20266,-25.84341 -81.96729,-55.038 -113.74709,-103.68845 -0.50582,-31.99473 5.87103,-68.52084 13.55465,-93.63923 9.90619,-34.91423 22.07281,-63.50831 39.60975,-87.81551 l 18.54573,-25.9221 17.30933,-19.75019 18.54573,-16.04701 0,-6.17192 c -22.64024,2.31258 -30.63033,7.8224 -49.63735,18.86398 -17.55552,13.66047 -35.42857,30.24622 -49.27318,51.49602 l -17.309347,27.15649 -13.600207,28.39087 -11.12742,43.20354 -4.945535,-37.03162 0,-23.45332 c -0.864883,-17.69249 0.782271,-35.21215 2.264063,-52.80951 6.040727,-35.06874 13.526031,-54.48394 31.118256,-84.20734 12.09636,-16.47737 26.77063,-29.86704 42.03697,-43.20351 16.51792,-12.15119 31.99462,-21.94478 55.63718,-32.09405 22.90716,-7.84251 39.45132,-7.40631 63.05544,-7.40631 l 11.12744,-6.17193 0,-7.40633 -19.78212,-4.93754 c -29.13604,-4.28713 -48.80372,-0.1127 -75.41925,8.6407 -17.76913,6.04718 -32.66229,16.98595 -48.21889,27.1565 l -19.7821,14.81263 18.63675,-34.56279 c 19.79278,-24.38616 29.38811,-33.49514 56.5094,-47.92344 19.87336,-11.20853 39.16238,-17.58809 69.28287,-23.58391 24.11472,-4.44451 51.15972,-8.14681 80.5924,-11.19654 l 40.8006,-3.70316 -12.36381,-23.45334 -6.18192,-14.81263 z"
       style="fill:none;stroke:#ffffff;stroke-width:6.73321247;stroke-linecap:butt;stroke-linejoin:bevel;stroke-miterlimit:4;stroke-opacity:1;stroke-dasharray:none;marker-start:none" />
    <path
       style="fill:#ff0000;stroke:#000000;stroke-width:1px;stroke-linecap:butt;stroke-linejoin:miter;stroke-opacity:1"
       d="m 457.29001,218.7606 30.96235,13.09945 13.09945,11.9086 -17.86289,2.38172 z"
       id="path4196"
       inkscape:connector-curvature="0" />
    <path
       style="fill:#ffff00;stroke:#000000;stroke-width:1.51570594px;stroke-linecap:butt;stroke-linejoin:miter;stroke-opacity:1"
       d="m 500.29392,246.03518 -20.08769,-11.80865 11.03217,21.08233 z"
       id="path4204"
       inkscape:connector-curvature="0" />
    <path
       style="fill:none;stroke:#271515;stroke-width:1.74529207;stroke-linecap:butt;stroke-linejoin:bevel;stroke-miterlimit:4;stroke-opacity:1;stroke-dasharray:none;marker-start:none"
       d="m 359.54035,167.02074 61.53495,23.79527 c 29.91755,5.90451 48.29864,8.62458 71.89889,18.58466 l 23.93284,13.14596 26.53493,30.52985 48.33714,38.3367 3.64414,22.15887 -23.65426,28.84913 -12.34566,-3.59849 -29.97336,20.98017 -6.42066,-9.32057 20.49171,-32.13354 -8.15245,-9.90921 -10.36425,-6.39325 -12.57596,-2.88492 c -17.95774,-3.87705 -36.70242,-0.10156 -55.1337,12.12362 -26.63967,21.12967 -38.35367,33.99309 -35.80752,61.19069 l 0.50778,9.11428 c 2.68349,0.51665 14.09493,-0.28684 16.58283,0.79222 l 15.1209,-0.42465 c 14.01454,-1.21431 12.33731,-1.67787 22.85816,6.25576 -1.15864,6.08835 -4.94949,5.71402 -10.44966,7.25186 l -30.89671,8.03752 -6.41268,8.89348 c -16.59052,-2.91992 -48.59622,7.50251 -41.85036,-13.76607 l 1.34681,-14.78164 c -1.41972,-23.02996 -5.11713,-34.05328 -19.9895,-45.21824 -12.75881,-1.65336 -14.7965,1.47132 -23.69095,7.62579 -7.09814,8.69106 -12.69397,23.33443 -15.81141,37.91288 l -7.94397,4.87922 -9.62059,-4.40243 -8.37923,-17.49088 -6.94022,-7.6013 -2.11301,4.93875 -1.34683,5.38334 c 7.17135,12.95009 13.8655,22.84437 22.98297,34.99625 l 4.4219,9.83494 c -3.17106,12.14793 -6.31135,24.88548 -10.23232,36.80353 -1.83276,10.92871 -3.86305,26.79626 -0.92407,35.83204 15.52115,40.52663 49.91191,60.82081 80.59724,68.3779 31.18774,5.12042 55.63706,1.89649 80.03488,-7.63646 33.57525,-19.49217 42.11396,-26.64812 52.14752,-46.40908 l 16.98396,-36.54462 1.23258,1.10351 c 6.68135,3.95335 8.73478,30.89963 -2.30852,57.90064 -20.83007,40.24448 -53.68396,64.09573 -102.34015,68.73111 -15.33634,2.61384 -35.24121,-0.73137 -48.53175,-3.22857 l -5.84455,-1.20537 16.25188,13.94681 c 23.53414,19.96965 39.70196,29.77115 65.25939,43.88966 14.05039,4.85908 40.1493,8.32535 54.57108,7.15668 18.1133,-1.46781 27.8247,-8.59625 43.69802,-15.99799 81.66428,-56.75132 92.02899,-143.46518 88.54366,-233.59386 l 7.49044,0.20309 11.07789,24.69137 c 10.59115,42.09741 13.10898,91.73263 2.83475,137.88719 -21.28758,72.21152 -44.6773,119.73223 -99.90774,172.16538 -33.60902,29.46183 -80.44874,49.36334 -120.16505,57.14817 -36.93854,2.2695 -51.14589,-1.99489 -82.0278,-19.92717 C 345.19831,760.47516 330.33628,743.033 312.33088,722.40259 286.71571,692.67647 270.16567,642.6061 270.16567,642.6061 l -10.13203,-36.5986 -4.82789,-39.40572 -8.59594,-12.3453 -1.63788,18.71221 c -2.74373,39.9188 -1.21072,79.76662 8.48897,111.91345 12.93633,42.87374 39.0761,75.02583 76.19077,104.13298 l -2.67431,4.40739 -30.7577,-2.47639 c -29.56961,-3.4048 -54.29581,-11.58983 -82.0278,-21.1726 -55.49127,-26.07499 -82.39583,-55.5312 -114.341779,-104.61762 -0.508464,-32.28144 5.901729,-69.13487 13.625519,-94.47835 9.95797,-35.2271 21.76354,-65.77606 39.39217,-90.30108 l 15.67008,-21.05848 17.82449,-21.62581 22.03996,-20.01274 c -22.32719,0.44292 -41.57863,14.82346 -47.93981,18.50167 -17.6473,13.78288 -29.65948,25.75382 -43.57649,47.19404 -24.70525,31.9278 -33.788243,59.95701 -44.595179,100.33279 -0.757508,2.83012 -5.217243,-3.72635 -6.163815,-0.85412 -2.627868,-19.82675 -3.802934,-39.72683 -4.805157,-59.67894 -0.869405,-17.85103 0.786361,-35.52769 2.275899,-53.28275 6.07231,-35.38299 13.596748,-54.97218 31.280948,-84.96193 12.159604,-16.62503 26.910584,-30.13469 42.256744,-43.59067 16.60428,-12.26008 33.45318,-24.07837 57.21935,-34.31859 21.08999,-5.97585 44.17711,-7.47267 64.03075,-7.47267 l 8.45955,-5.5816 -5.40907,-3.79968 -24.40507,-3.79093 c -29.28837,2.8196 -51.4406,4.64973 -73.43185,15.86328 -17.86203,6.10137 -25.68789,14.75646 -41.32583,25.01815 l -14.95616,13.26008 -6.12022,-3.07816 21.11591,-38.44509 c 19.89626,-24.60468 29.54175,-33.7953 56.80484,-48.35289 19.97726,-11.30897 35.49324,-17.10005 65.77121,-23.1496 24.24079,-4.48434 54.65543,-9.51112 84.24198,-12.58818 l 38.63219,-3.6359 -10.04673,-19.24442 -7.95031,-21.20097 z"
       id="path4228"
       inkscape:connector-curvature="0"
       sodipodi:nodetypes="ccccccccccccccccccccccccccccccccccccccccccccccccccsccccccccccccccsccccccccccccscccccccccccccccccccccc" />
  </g>
</svg>
