<?xml version="1.0" encoding="UTF-8" standalone="no"?><svg xmlns="http://www.w3.org/2000/svg" viewBox="0 0 1024 1024">
  <circle cx="512" cy="512" r="512" fill="#0079c1"/>
  <path fill="#fff" d="M344.275 694.884l17.4-377.497-115.708-105.4a6.901 6.901 0 0 0-8.68.903l-53.456 53.447a6.927 6.927 0 0 0-1.014 8.485l62.583 103.07a267.523 267.523 0 0 0-26.349 60.01l-114.899 23.9a6.919 6.919 0 0 0-5.5 6.775v75.584a6.895 6.895 0 0 0 5.263 6.71l111.518 27.258c5.947 24.583 15.165 47.89 27.345 69.31l-64.547 98.433a6.912 6.912 0 0 0 .903 8.692l53.44 53.447a6.962 6.962 0 0 0 8.496 1.028zM432.212 276.901L755.557 475.18l151.865-33.242a6.9 6.9 0 0 0 3.74-7.886l-17.888-73.444a6.927 6.927 0 0 0-6.723-5.276l-120.583-.086a267.519 267.519 0 0 0-37.58-53.695l39.284-110.588a6.918 6.918 0 0 0-2.931-8.22l-64.58-39.274a6.895 6.895 0 0 0-8.467 1.01l-81.236 81.117c-24.094-7.693-48.798-11.928-73.427-12.651L486.47 106.648a6.912 6.912 0 0 0-7.895-3.745L405.14 120.79a6.962 6.962 0 0 0-5.294 6.725zM749.212 564.353l-326.295 178.89-39.478 149.411a6.901 6.901 0 0 0 5.116 7.071l72.996 19.637a6.927 6.927 0 0 0 7.859-3.357l58.065-105.682a267.519 267.519 0 0 0 65.151-7.127l78.068 87.626a6.918 6.918 0 0 0 8.616 1.384l65.492-37.733a6.895 6.895 0 0 0 3.187-7.91l-32.054-110.236c18.332-17.425 33.926-37.048 46.404-58.294l117.514 6.788a6.912 6.912 0 0 0 7.08-5.121l19.633-72.986a6.962 6.962 0 0 0-3.35-7.876z"/>
  <circle cx="512" cy="512" r="247.142" fill="#0079c1"/>
</svg>