<?xml version="1.0"?>
<svg xmlns:rdf="http://www.w3.org/1999/02/22-rdf-syntax-ns#" xmlns="http://www.w3.org/2000/svg" xmlns:cc="http://creativecommons.org/ns#" xmlns:xlink="http://www.w3.org/1999/xlink" xmlns:dc="http://purl.org/dc/elements/1.1/" xmlns:svg="http://www.w3.org/2000/svg" id="svg1306" viewBox="0 0 48 48">
  <defs id="defs1308">
    <radialGradient id="radialGradient5031" xlink:href="#linearGradient5060" gradientUnits="userSpaceOnUse" cy="486.65" cx="605.71" gradientTransform="matrix(-2.7744 0 0 1.9697 112.76 -872.89)" r="117.14"/>
    <linearGradient id="linearGradient5060">
      <stop id="stop5062" offset="0"/>
      <stop id="stop5064" stop-opacity="0" offset="1"/>
    </linearGradient>
    <radialGradient id="radialGradient5029" xlink:href="#linearGradient5060" gradientUnits="userSpaceOnUse" cy="486.65" cx="605.71" gradientTransform="matrix(2.7744 0 0 1.9697 -1891.6 -872.89)" r="117.14"/>
    <linearGradient id="linearGradient5027" x1="302.86" gradientUnits="userSpaceOnUse" y1="366.65" gradientTransform="matrix(2.7744 0 0 1.9697 -1892.2 -872.89)" x2="302.86" y2="609.51">
      <stop id="stop5050" stop-opacity="0" offset="0"/>
      <stop id="stop5056" offset=".5"/>
      <stop id="stop5052" stop-opacity="0" offset="1"/>
    </linearGradient>
    <linearGradient id="linearGradient2212" x1="25.861" gradientUnits="userSpaceOnUse" y1="26.134" gradientTransform="matrix(.95239 0 0 1.0183 1.1426 -1.9416)" x2="18.3" y2="19.568">
      <stop id="stop2208" stop-color="#c3c6c0" offset="0"/>
      <stop id="stop2210" stop-color="#e8eae6" offset="1"/>
    </linearGradient>
    <linearGradient id="linearGradient2220" x1=".0012142" gradientUnits="userSpaceOnUse" y1="24.012" gradientTransform="matrix(.95239 0 0 1.0183 1.1426 -1.9416)" x2="47.999" y2="24.012">
      <stop id="stop2216" stop-color="#a9aaa7" offset="0"/>
      <stop id="stop2218" stop-color="#676964" offset="1"/>
    </linearGradient>
    <linearGradient id="linearGradient2244" x1="20.339" gradientUnits="userSpaceOnUse" y1="19.637" gradientTransform="matrix(.95239 0 0 1.0157 1.1426 -.87632)" x2="46.092" y2="39.708">
      <stop id="stop2240" stop-color="#fff" offset="0"/>
      <stop id="stop2242" stop-color="#fff" stop-opacity="0" offset="1"/>
    </linearGradient>
    <linearGradient id="linearGradient1340" x1="8.8208" gradientUnits="userSpaceOnUse" y1="12.538" gradientTransform="matrix(3.8095 0 0 1.7503 -16 -15.787)" x2="12.499" y2="24.238">
      <stop id="stop2182" stop-color="#fff" offset="0"/>
      <stop id="stop2184" stop-color="#fff" stop-opacity="0" offset="1"/>
    </linearGradient>
    <radialGradient id="radialGradient2229" gradientUnits="userSpaceOnUse" cy="32.267" cx="23.994" gradientTransform="matrix(1.7686 -1.9613e-23 1.5521e-23 1.3871 -18.442 -15.293)" r="19.089">
      <stop id="stop2224" stop-color="#5187d6" offset="0"/>
      <stop id="stop2227" stop-color="#1e4580" offset="1"/>
    </radialGradient>
    <linearGradient id="linearGradient2231" y2="5.9589" gradientUnits="userSpaceOnUse" y1="37.334" x2="15.044" x1="35.694">
      <stop id="stop2225" stop-color="#fff" offset="0"/>
      <stop id="stop2229" stop-color="#fff" stop-opacity="0" offset="1"/>
    </linearGradient>
  </defs>
  <g id="layer1">
    <g id="g5022" transform="matrix(.024545 0 0 .020868 45.894 40.091)">
      <rect id="rect4173" opacity=".40206" style="color:black" height="478.36" width="1339.6" y="-150.7" x="-1559.3" fill="url(#linearGradient5027)"/>
      <path id="path5058" opacity=".40206" style="color:black" fill="url(#radialGradient5029)" d="m-219.62-150.68v478.33c142.88 0.9 345.4-107.17 345.4-239.2 0-132.02-159.44-239.13-345.4-239.13z"/>
      <path id="path5018" opacity=".40206" style="color:black" fill="url(#radialGradient5031)" d="m-1559.3-150.68v478.33c-142.8 0.9-345.4-107.17-345.4-239.2 0-132.02 159.5-239.13 345.4-239.13z"/>
    </g>
    <rect id="rect1316" stroke-linejoin="round" fill-rule="evenodd" rx="4.566" ry="4.566" height="41.702" width="44.76" stroke="url(#linearGradient2220)" stroke-linecap="round" y="1.6601" x="1.6199" fill="url(#linearGradient2212)"/>
    <rect id="rect1314" stroke-linejoin="round" fill-rule="evenodd" rx="1.6947" ry="1.6947" height="28.955" width="37.178" stroke="#173562" stroke-linecap="round" y="5.4816" x="5.4052" fill="url(#radialGradient2229)"/>
    <path id="path2188" d="m12.391 20.935h-6.0221v1.217h7.7191l1.406-5.913 3.462 13.698 3.209-10.82 2.894 5.912 3.887-3.512h12.709v-2.06h-13.15l-3.17 3.14-3.275-6.659-3.01 8.174-3.269-12.863-3.39 9.686z" stroke-opacity=".41618" fill-rule="evenodd" stroke="#c3ea9b" stroke-miterlimit="10" fill="#ecffd9"/>
    <rect id="rect2232" stroke-linejoin="round" rx="4.1303" ry="4.1303" height="39.647" width="42.895" stroke="url(#linearGradient2244)" stroke-linecap="round" y="2.6544" x="2.5537" fill="none"/>
    <path id="path3088" opacity=".38068" d="m11.516 20.012h-5.1471v3.049l8.5941-0.125 0.656-3.043 3.344 12.709 3.577-11.467 2.519 5.416 4.262-4.108 12.334-0.125-0.75-3.91-12.4-0.125-3.045 3.173-3.4-7.79-2.635 6.938-3.519-12.27-4.39 11.678z" stroke-opacity=".41618" fill-rule="evenodd" stroke="#c3ea9b" fill="#ecffd9"/>
    <path id="rect2178" opacity=".43182" fill-rule="evenodd" fill="url(#linearGradient1340)" d="m6.8438 6.9688v8.8262c3.6702 0.688 7.7392 1.08 12.031 1.08 8.935 0 16.937-1.665 22.281-4.278v-5.6282h-34.312z"/>
    <g id="g3126" opacity=".079545" stroke="#000" stroke-miterlimit="10" transform="translate(.18750 .68750)">
      <path id="path3120" opacity="1" style="color:#000000" d="m39.125 37.812l-1.063-0.468c-0.256-0.14-0.562-0.219-0.874-0.219-1.001 0-1.813 0.812-1.813 1.813 0 1 0.812 1.812 1.813 1.812 0.969 0 1.763-0.762 1.812-1.719v-0.031l0.125-1.188z"/>
      <path id="path3122" opacity="1" style="color:#000000" d="m28.993 37.545l-0.1 1.165c-0.037 0.29-0.001 0.603 0.112 0.895 0.362 0.933 1.413 1.396 2.345 1.035 0.933-0.362 1.397-1.412 1.035-2.345-0.35-0.904-1.347-1.37-2.257-1.069-0.008 0.002-0.022 0.009-0.029 0.011l-1.106 0.308z"/>
      <path id="path3124" opacity="1" style="color:#000000" d="m25.5 37.812l-0.938-0.468c-0.256-0.14-0.562-0.219-0.874-0.219-1.001 0-1.813 0.812-1.813 1.813 0 1 0.812 1.812 1.813 1.812 0.969 0 1.763-0.762 1.812-1.719v-1.219z"/>
    </g>
    <path id="path3111" style="color:#000000" d="m39.125 37.812l-1.063-0.468c-0.256-0.14-0.562-0.219-0.874-0.219-1.001 0-1.813 0.812-1.813 1.813 0 1 0.812 1.812 1.813 1.812 0.969 0 1.763-0.762 1.812-1.719v-0.031l0.125-1.188z" stroke="#9b9d99" stroke-miterlimit="10" fill="#e0e2df"/>
    <path id="path3116" style="color:#000000" d="m28.993 37.545l-0.1 1.165c-0.037 0.29-0.001 0.603 0.112 0.895 0.362 0.933 1.413 1.396 2.345 1.035 0.933-0.362 1.397-1.412 1.035-2.345-0.35-0.904-1.347-1.37-2.257-1.069-0.008 0.002-0.022 0.009-0.029 0.011l-1.106 0.308z" stroke="#9b9d99" stroke-miterlimit="10" fill="#e0e2df"/>
    <path id="path3118" style="color:#000000" d="m25.5 37.812l-0.938-0.468c-0.256-0.14-0.562-0.219-0.874-0.219-1.001 0-1.813 0.812-1.813 1.813 0 1 0.812 1.812 1.813 1.812 0.969 0 1.763-0.762 1.812-1.719v-1.219z" stroke="#9b9d99" stroke-miterlimit="10" fill="#e0e2df"/>
    <rect id="rect2221" opacity=".57386" stroke-linejoin="round" rx="2.5697" ry="2.5697" height="30.646" width="39.35" stroke="url(#linearGradient2231)" stroke-linecap="round" y="4.6358" x="4.3192" fill="none"/>
  </g>
  <metadata>
    <rdf:RDF>
      <cc:Work>
        <dc:format>image/svg+xml</dc:format>
        <dc:type rdf:resource="http://purl.org/dc/dcmitype/StillImage"/>
        <cc:license rdf:resource="http://creativecommons.org/licenses/publicdomain/"/>
        <dc:publisher>
          <cc:Agent rdf:about="http://openclipart.org/">
            <dc:title>Openclipart</dc:title>
          </cc:Agent>
        </dc:publisher>
        <dc:title>tango utilities system monitor</dc:title>
        <dc:date>2010-03-29T08:46:59</dc:date>
        <dc:description>"System monitor" icon from &lt;a href="http://tango.freedesktop.org/Tango_Desktop_Project"&gt; Tango Project &lt;/a&gt; &#xD;\n&lt;br&gt;&lt;br&gt;&#xD;\nSince version 0.8.90 Tango Project icons are Public Domain: &lt;a href="http://tango.freedesktop.org/Frequently_Asked_Questions#Terms_of_Use.3F"&gt; Tango Project FAQ &lt;/a&gt;</dc:description>
        <dc:source>http://openclipart.org/detail/35353/tango-utilities-system-monitor-by-warszawianka</dc:source>
        <dc:creator>
          <cc:Agent>
            <dc:title>warszawianka</dc:title>
          </cc:Agent>
        </dc:creator>
        <dc:subject>
          <rdf:Bag>
            <rdf:li>clip art</rdf:li>
            <rdf:li>clipart</rdf:li>
            <rdf:li>display</rdf:li>
            <rdf:li>externalsource</rdf:li>
            <rdf:li>icon</rdf:li>
            <rdf:li>monitor</rdf:li>
            <rdf:li>screen</rdf:li>
            <rdf:li>signal</rdf:li>
            <rdf:li>tango</rdf:li>
          </rdf:Bag>
        </dc:subject>
      </cc:Work>
      <cc:License rdf:about="http://creativecommons.org/licenses/publicdomain/">
        <cc:permits rdf:resource="http://creativecommons.org/ns#Reproduction"/>
        <cc:permits rdf:resource="http://creativecommons.org/ns#Distribution"/>
        <cc:permits rdf:resource="http://creativecommons.org/ns#DerivativeWorks"/>
      </cc:License>
    </rdf:RDF>
  </metadata>
</svg>
